<svg width="100" height="125" xmlns="http://www.w3.org/2000/svg" xmlns:xlink="http://www.w3.org/1999/xlink" xml:space="preserve" overflow="hidden"><g transform="translate(-590 -297)"><path d="M658 363 656 365 645.638 354.759C643.144 356.785 639.964 358 636.5 358 628.492 358 622 351.508 622 343.5 622 335.492 628.492 329 636.5 329 644.508 329 651 335.492 651 343.5 651 346.964 649.785 350.144 647.759 352.638L658 363ZM636.5 355C642.851 355 648 349.851 648 343.5 648 337.149 642.851 332 636.5 332 630.149 332 625 337.149 625 343.5 625 349.851 630.149 355 636.5 355Z" fill="#FF0000"/><text fill="#FF0000" font-family="Arial,Arial_MSFontService,sans-serif" font-weight="700" font-size="5" transform="translate(590 412)">Created by Landan Lloyd</text><text fill="#FF0000" font-family="Arial,Arial_MSFontService,sans-serif" font-weight="700" font-size="5" transform="translate(590 417)">from the Noun Project</text></g></svg>